<svg width="591" height="407" viewBox="0 0 591 407" fill="none" xmlns="http://www.w3.org/2000/svg">
<path d="M-15 143H266V356H-15V143Z" fill="#F72D57"/>
<path d="M482.968 158.588C486.995 157.711 491.029 156.813 495.156 157.992C497.87 160.987 497.676 164.894 497.884 168.425C498.312 175.742 498.306 183.113 496.141 190.269C495.887 191.12 495.947 192.025 496.403 192.849C498.011 197.58 500.899 201.647 503.144 206.056C507.077 211.913 509.503 218.499 512.411 224.865C515.265 231.11 517.121 237.643 518.502 244.297C519.668 249.919 518.26 255.427 516.15 260.634C510.374 274.852 502.406 287.865 494.084 300.717C485.755 313.576 476.294 325.55 466.98 337.665C461.438 344.875 454.523 349.197 445.645 350.792C436.411 352.447 427.084 353.378 417.79 354.51C405.4 356.011 392.991 357.687 380.547 358.316C368.111 358.946 355.668 359.777 343.131 358.873C334.353 358.243 325.702 356.4 316.877 356.46C316.194 353.673 317.695 351.287 318.371 348.775C322.017 335.353 321.635 322.159 314.974 309.803C307.55 296.02 293.257 285.339 274.73 287.992C274.173 288.073 273.617 288.046 273.068 287.959C266.166 286.806 259.733 288.649 253.663 291.577C242.332 297.038 233.621 305.475 226.826 316.022C222.29 323.057 218.102 330.294 214.128 337.658C213.391 339.018 212.916 340.975 210.577 340.251C215.113 328.197 217.405 315.392 222.866 303.652C223.328 302.66 223.878 301.709 224.387 300.744C227.972 292.636 235.504 289.433 242.915 286.505C251.492 283.121 260.256 280.166 269.342 278.297C286.798 274.692 304.34 271.623 322.05 269.566C328.349 268.835 334.634 268.112 340.993 268.346C342.206 268.393 343.459 268.225 344.585 268.862C345.717 270.557 343.968 270.866 343.211 271.562C338.869 275.576 334.312 279.436 331.13 284.461C323.698 296.181 323.31 308.316 329.521 320.712C333.676 328.994 339.485 335.99 346.106 342.376C347.164 343.401 348.417 344.165 349.838 344.526C356.438 346.188 363.079 347.575 369.953 347.173C374.095 348.487 378.39 348.232 382.551 347.883C390.424 347.227 398.344 347.756 406.191 346.684C407.625 346.49 409.039 346.202 410.459 345.94C419.539 345.746 428.343 344.004 436.713 340.499C440.472 338.925 443.065 335.748 445.584 332.599C451.863 324.746 456.728 316.008 461.546 307.244C462.283 306.098 462.544 304.751 463.087 303.525C469.365 291.564 474.25 279.02 478.331 266.168C479.879 261.297 481.4 256.405 482.613 251.42C484.167 245.001 484.864 238.494 485.487 231.968C485.46 230.802 485.594 229.623 485.045 228.524C481.413 220.751 477.54 213.085 474.706 204.957C473.64 201.902 472.535 198.866 471.65 195.757C471.422 194.618 471.04 193.506 470.987 192.333C471.55 189.291 474.264 188.004 476.234 186.182C478.096 184.46 480.14 182.912 482.097 181.277C483.33 180.252 483.959 178.918 483.035 177.471C482.077 175.977 480.515 176.171 479.155 176.834C476.85 177.953 475.034 179.816 472.917 181.23C471.851 181.94 470.873 183.1 469.352 182.208C464.42 173.33 469.171 162.729 479.39 159.781C480.596 159.433 481.976 159.567 482.981 158.602L482.968 158.588Z" fill="#F72D57"/>
<path d="M371.287 141.917C372.64 145.844 375.837 148.584 377.847 152.116C379.475 154.977 381.639 157.537 383.549 160.244C384.233 161.215 385.197 162.2 383.851 163.386C376.493 163.795 371.374 168.486 366.02 172.72C365.156 173.404 364.452 174.302 363.293 174.543C362.971 174.57 362.65 174.543 362.335 174.456C355.44 168.613 349.101 162.348 346.132 152.88C345.61 157.717 345.429 161.899 348.384 165.671C350.917 168.914 352.813 172.593 354.937 176.111C355.761 177.485 356.679 178.718 358.515 178.677C359.467 179.475 360.103 180.433 360.097 181.733C358.287 189.479 353.483 194.384 345.904 196.649C342.996 197.52 342.299 198.645 342.829 201.56C342.909 202.003 342.983 202.458 343.177 202.847C346.079 208.683 343.66 212.918 339.043 216.429C331.545 222.125 323.564 226.809 314.344 229.355C306.819 231.432 299.395 233.75 291.515 233.965C289.706 233.911 287.816 234.045 286.925 231.921C284.7 228.202 285.618 224.343 286.536 220.543C288.56 212.234 292.761 204.837 296.339 197.165C303.589 181.619 310.35 165.832 319.624 151.318C324.429 143.793 329.36 136.369 336.363 130.613C339.237 128.254 342.494 127.028 346.213 127.035C348.652 127.182 350.079 129.032 351.794 130.392C357.021 134.54 363.186 137.193 368.667 140.939C369.813 141.723 370.985 142.306 370.878 143.974C370.992 144.356 371.454 143.907 371.012 143.994C370.912 144.015 370.858 143.914 370.858 143.7C370.858 143.07 370.543 142.366 371.28 141.917H371.287Z" fill="#F72D57"/>
<path d="M187.707 250.576C183.6 249.745 180.926 246.971 180.712 242.977C180.571 240.344 180.765 237.69 180.812 235.044C181.08 234.836 181.362 234.648 181.657 234.481C188.9 232.658 196.338 231.74 203.555 229.717C227.905 222.882 248.295 210.084 264.102 190.169C270.388 182.255 275.795 173.886 278.817 164.143C278.958 163.688 279.293 163.406 279.735 163.246C280.854 163.627 280.057 164.767 280.579 165.376C280.593 190.906 280.599 216.436 280.619 241.966C280.619 245.993 278.502 248.619 275.132 250.449C273.188 252.084 270.796 252.104 268.491 252.117C246.908 252.204 225.312 252.646 203.749 251.97C198.489 251.802 193.061 251.058 187.714 250.569L187.707 250.576Z" fill="#D32045"/>
<path d="M222.377 362.625C220.675 362.464 218.966 362.297 217.264 362.136C218.108 360.514 218.919 359.007 218.953 356.976C219.181 342.831 224.059 330.555 233.661 320.028C242.07 310.808 251.284 302.747 262.615 297.32C263.533 296.878 264.149 296.027 265.107 295.678C277.229 297.956 287.126 303.545 292.935 314.889C296.822 322.474 297.485 330.763 296.916 339.052C296.446 345.933 295.314 352.788 293.056 359.382C292.694 360.434 292.379 361.513 291.622 362.39C289.766 363.804 287.595 363.328 285.531 363.369C282.985 363.409 280.445 363.476 277.899 363.469C269.677 362.136 261.435 362.652 253.187 363.114C247.297 363.677 241.4 363.335 235.503 363.409C232.528 362.953 229.547 363.57 226.565 363.375C225.137 363.282 223.67 363.476 222.377 362.638V362.625Z" fill="#F72D57"/>
<path d="M316.931 356.373C320.77 354.584 324.603 356.045 328.389 356.514C341.415 358.142 354.441 359.027 367.568 357.781C373.096 357.258 378.671 357.848 384.226 357.077C391.898 356.012 399.638 355.476 407.337 354.604C414.265 353.827 421.214 353.09 428.142 352.286C434.736 351.522 441.343 350.798 447.856 349.425C455.635 347.776 461.452 343.401 466.189 337.136C473.754 327.138 481.782 317.503 488.77 307.063C497.562 293.936 505.991 280.595 512.786 266.323C515.386 260.861 517.751 255.173 517.845 248.954C517.965 241.215 514.957 234.179 512.411 227.103C510.541 221.904 507.841 217.005 505.864 211.839C505.087 209.815 502.4 208.737 503.123 206.063C508.564 213.997 516.786 219.478 521.986 227.653C538.992 254.375 537.116 284.475 515.607 309.194C515.104 309.77 514.461 310.219 513.878 310.728C513.007 312.651 511.137 312.893 509.422 313.228C497.917 315.479 488.737 321.449 481.205 330.314C476.307 336.084 473.855 342.925 471.838 350.008C471.375 351.623 471.06 353.264 469.6 354.343C468.32 357.586 465.445 358.839 462.497 359.911C457.726 361.647 452.714 362.19 447.695 362.196C404.12 362.257 360.552 362.237 316.978 362.243C316.643 362.243 316.314 362.183 315.979 362.149C314.592 361.975 314.425 361.118 314.867 360.019C315.389 358.719 315.517 357.184 316.904 356.367L316.931 356.373Z" fill="#D32045"/>
<path d="M348.632 5.96632C351.225 5.96632 353.322 5.8859 355.406 6.51577C356.539 6.85751 357.751 6.69669 358.87 5.8457C367.32 -0.607089 376.621 -1.03593 386.518 1.77167C391.597 3.21233 396.08 6.58948 401.802 6.04672C405.26 5.71839 408.449 5.28285 411.672 3.63447C419.566 -0.406059 427.714 -1.02923 436.505 1.52374C444.633 3.88909 452.908 6.06682 461.492 6.757C464.782 7.02503 468.28 7.40697 471.195 9.75892C475.108 12.9083 474.545 18.5436 469.975 21.1166C463.388 24.8221 456.299 26.1422 448.828 24.9628C447.487 24.7551 446.67 25.1438 445.913 26.0149C440.599 32.1259 433.483 31.9048 426.494 31.1208C418.473 30.2229 410.54 28.6013 402.546 27.4622C399.329 27.0066 396.133 27.6297 392.997 28.4941C386.866 30.1894 380.668 31.0471 374.302 30.0755C372.191 29.7539 370.081 29.2714 368.325 28.1256C363.501 25.003 358.321 24.9427 352.914 25.7468C345.931 26.7787 339.144 25.8138 332.811 22.7382C329.87 21.311 327.116 18.959 327.752 15.2535C328.382 11.5681 331.398 9.21616 334.755 8.27806C339.412 6.97812 344.149 5.48387 348.652 5.95962L348.632 5.96632Z" fill="#F72D57"/>
<path d="M511.42 63.0559C513.069 63.0559 514.402 63.0047 515.727 63.4061C516.447 63.6239 517.218 63.5214 517.93 62.979C523.302 58.8664 529.215 58.5931 535.507 60.3825C538.736 61.3007 541.586 63.4531 545.225 63.1072C547.423 62.8979 549.451 62.6203 551.5 61.5697C556.518 58.9945 561.699 58.5973 567.288 60.2245C572.456 61.732 577.717 63.12 583.174 63.5598C585.266 63.7307 587.49 63.9741 589.343 65.4731C591.831 67.4803 591.473 71.0719 588.568 72.7119C584.38 75.0735 579.873 75.9149 575.122 75.1632C574.27 75.0308 573.751 75.2785 573.269 75.8337C569.891 79.7286 565.367 79.5876 560.923 79.088C555.824 78.5157 550.78 77.4822 545.698 76.7562C543.653 76.4658 541.621 76.8629 539.627 77.4139C535.729 78.4943 531.788 79.041 527.741 78.4217C526.399 78.2167 525.057 77.9093 523.941 77.179C520.874 75.1888 517.581 75.1504 514.143 75.6629C509.703 76.3206 505.388 75.7056 501.362 73.7454C499.492 72.8357 497.741 71.3367 498.146 68.975C498.546 66.6262 500.463 65.1272 502.598 64.5293C505.558 63.7008 508.57 62.7484 511.433 63.0516L511.42 63.0559Z" fill="#F72D57"/>
<path d="M105.972 65.2196C108.565 65.2196 110.662 65.1392 112.746 65.7691C113.879 66.1108 115.092 65.95 116.211 65.099C124.66 58.6462 133.961 58.2174 143.858 61.025C148.937 62.4656 153.42 65.8428 159.142 65.3C162.6 64.9717 165.789 64.5362 169.012 62.8878C176.906 58.8473 185.054 58.2241 193.845 60.7771C201.973 63.1424 210.248 65.3201 218.832 66.0103C222.122 66.2783 225.62 66.6603 228.535 69.0122C232.448 72.1616 231.885 77.7969 227.315 80.3699C220.728 84.0754 213.639 85.3955 206.168 84.2161C204.828 84.0084 204.01 84.3971 203.253 85.2682C197.939 91.3792 190.823 91.1581 183.834 90.3741C175.813 89.4762 167.88 87.8546 159.886 86.7155C156.669 86.2599 153.473 86.883 150.337 87.7474C144.206 89.4427 138.008 90.3004 131.642 89.3288C129.532 89.0072 127.421 88.5247 125.665 87.3789C120.841 84.2564 115.661 84.1961 110.254 85.0001C103.272 86.0321 96.4837 85.0671 90.1515 81.9915C87.2099 80.5643 84.4559 78.2123 85.0925 74.5068C85.7223 70.8214 88.7377 68.4695 92.0947 67.5314C96.7517 66.2314 101.489 64.7372 105.992 65.2129L105.972 65.2196Z" fill="#F72D57"/>
<path d="M184.19 135.853C185.603 134.084 187.627 133.93 189.63 133.923C216.849 133.903 244.067 133.903 271.285 133.943C276.023 133.943 278.609 135.967 280.15 140.503C280.633 145.837 280.211 151.178 280.378 156.518C280.425 158.099 279.574 158.696 278.214 158.93C276.78 159.178 275.326 159.125 273.879 159.125C246.138 159.125 218.403 159.131 190.662 159.125C187.66 159.125 184.625 159.245 181.838 157.805C180.672 156.21 181.335 154.387 181.255 152.672C181.141 150.239 181.409 147.774 181.181 145.355C180.839 141.709 181.844 138.594 184.19 135.853Z" fill="#F72D57"/>
<path d="M316.931 356.373C317.085 358.377 314.311 359.912 316.013 362.156C313.942 362.813 311.624 361.513 309.66 362.967C308.984 363.068 308.314 363.048 307.65 362.853C304.36 362.444 301.077 362.371 297.807 362.92C297.525 363.054 297.224 363.161 296.922 363.242C295.12 362.719 292.922 363.63 291.488 361.748C294.316 352.273 296.406 342.677 296.112 332.707C295.763 321.061 291.897 310.996 282.509 303.612C278.536 300.49 273.758 298.814 268.94 297.541C267.426 297.139 266.179 296.188 264.638 296.02C262.635 295.953 261.569 294.781 261.355 292.925C261.147 291.149 262.28 289.97 263.74 289.259C266.528 287.899 269.429 286.874 272.626 287.309C280.244 286.009 287.689 286.499 294.805 289.688C306.022 294.727 313.868 303.17 318.15 314.554C322.573 326.321 322.687 338.396 318.787 350.423C318.15 352.4 317.547 354.383 316.931 356.367L316.931 356.373Z" fill="#B61A3B"/>
<path d="M308.119 362.243C308.635 362.485 309.144 362.732 309.66 362.974C308.883 380.262 301.01 393.355 285.605 401.141C270.448 408.807 255.271 407.694 241.233 398.065C228.93 389.629 222.712 377.601 222.377 362.619C226.706 362.424 231.041 361.701 235.329 362.954C236.167 363.644 236.428 364.602 236.562 365.607C238.445 379.29 246.412 387.538 259.459 391.244C278.763 394.614 293.579 381.803 295.321 366.331C295.455 365.125 295.663 363.898 296.52 362.927L296.896 362.33C300.635 361.808 304.374 361.969 308.113 362.243H308.119Z" fill="#22262A"/>
<path d="M363.132 174.148C367.427 170.254 371.91 166.629 377.163 164.083C379.301 163.051 381.479 162.287 383.844 163.379C383.971 164.251 383.911 165.195 384.246 165.979C386.169 170.462 388.206 174.898 390.169 179.367C390.699 180.567 391.349 181.391 392.83 181.478C405.782 182.242 418.607 184.44 431.593 184.962C435.996 185.137 440.398 185.988 444.747 186.785C447.742 187.334 450.663 187.723 453.639 186.879C457.766 185.706 462.296 187.006 466.269 184.862C466.893 185.907 467.723 186.731 468.742 187.408C470.444 188.534 471.503 190.075 471.603 192.179L472.293 195.543C471.556 199.577 469.278 202.572 465.928 204.783C464.983 205.406 463.984 206.391 462.664 205.453C462.189 204.622 462.363 203.751 462.544 202.887C462.698 202.136 462.906 201.393 463.053 200.635C463.495 198.397 463.542 195.885 461.947 194.384C460.312 192.849 458.007 193.901 456.084 194.786C453.672 196.126 451.186 197.285 448.452 197.794C446.985 197.138 445.497 197.198 443.996 197.687C442.736 198.103 441.463 198.35 440.143 197.888C436.733 197.265 433.288 197.151 429.838 197.158C416.677 197.205 403.571 196.246 390.451 195.221C381.264 194.504 374.088 190.631 368.533 183.435C367.106 181.585 365.202 180.118 363.996 178.081C363.293 176.888 362.113 175.742 363.132 174.141V174.148Z" fill="#F39E82"/>
<path d="M286.918 231.914C288.211 233.027 289.752 233.187 291.361 233.1C293.92 234.206 296.755 233.831 299.408 234.695C301.204 235.278 303.013 235.687 304.595 236.779C311.872 244.485 321.708 245.865 331.391 247.42C338.54 248.566 345.817 248.552 353.014 249.417C356.82 249.872 360.492 250.743 364.037 252.057C371.2 254.717 374.382 260.486 374.671 267.643C375.126 279.221 374.872 290.807 373.712 302.366C372.922 310.226 372.714 318.146 372.185 326.033C371.896 330.368 373.659 332.204 378.001 332.485C380.674 332.66 383.321 332.988 385.988 333.189C387.301 333.289 388.494 333.437 388.434 335.179C387.871 337.41 385.988 337.122 384.38 337.229C382.939 337.323 381.479 337.29 380.058 336.928C378.028 335.889 375.85 335.769 373.625 335.809C372.211 335.836 370.731 335.997 369.511 334.971C367.97 332.954 368.117 330.569 368.111 328.244C368.09 310.989 368.104 293.735 368.097 276.481C368.097 275.033 368.084 273.586 368.017 272.139C367.889 269.438 366.569 267.83 363.909 267.227C360.546 266.463 357.202 265.619 353.865 264.734C345.965 262.845 337.991 261.485 329.876 260.815C323.236 260.265 316.529 260.526 309.948 259.28C307.878 258.583 305.653 258.798 303.563 258.128C302.176 257.685 300.909 257.176 300.072 255.93C290.905 250.549 287.38 242.073 286.918 231.928V231.914Z" fill="#304A53"/>
<path d="M557.165 344.728C564.053 361.674 561.835 377.481 549.794 391.117C537.927 404.558 522.649 408.612 505.241 404.21C503.124 403.674 500.899 403.279 499.123 401.818C498.795 400.391 499.673 399.432 500.631 398.742C503.948 396.384 507.124 393.817 510.695 391.827C512.799 391.492 514.924 391.559 517.034 391.653C532.634 392.343 546.591 379.913 546.933 362.237C547.127 352.333 542.564 344.218 534.583 338.174C533.538 337.384 532.211 336.868 531.749 335.461C533.103 333.189 535.341 333.799 537.076 334.288C543.268 336.044 549.325 338.241 554.98 341.404C556.287 342.135 557.493 342.925 557.165 344.728Z" fill="#202328"/>
<path d="M469.62 354.35C471.878 347.562 473.245 340.446 477.272 334.328C482.767 325.979 490.003 319.774 499.069 315.479C503.847 313.214 509.241 313.187 513.891 310.728C515.01 312.189 516.578 311.452 517.932 311.465C536.634 311.666 550.658 320.055 560.582 335.682C560.749 335.943 560.709 336.325 560.77 336.653C561.614 339.226 560.502 339.561 558.538 338.449C554.766 336.305 551.154 333.919 547.254 331.956C542.771 329.704 538.041 328.297 533.203 327.895C513.657 326.28 496.597 332.659 481.487 344.801C477.855 347.716 475.624 351.777 472.93 355.449C472.347 356.239 471.878 358.089 470.323 356.333C469.948 355.723 470.551 354.758 469.613 354.35H469.62Z" fill="#F72D57"/>
<path d="M272.632 287.316C270.314 287.979 267.975 288.596 265.684 289.333C264.116 289.835 262.42 290.378 261.998 292.248C261.529 294.358 263.546 294.908 264.638 296.027C265.168 297.039 264.531 297.186 263.734 297.581C255.043 301.883 247.143 307.398 240.255 314.179C230.384 323.895 222.29 334.717 220.36 349.076C219.925 352.299 219.616 355.496 219.791 358.712C219.898 360.756 219.187 361.787 217.264 362.136C211.823 362.176 206.382 362.176 200.941 362.27C198.978 362.304 198.864 361.62 199.822 360.159C203.963 353.827 207.213 347.013 210.57 340.252C213.626 339.334 213.8 336.224 215.053 334.047C219.73 325.885 224.019 317.436 229.909 310.085C238.271 299.652 248.188 291.048 261.663 287.885C265.195 287.055 268.893 285.654 272.639 287.316H272.632Z" fill="#D32045"/>
<path d="M344.745 269.197C329.454 268.808 314.492 271.516 299.455 273.727C288.258 275.368 277.222 277.72 266.173 280.032C260.336 281.252 254.641 283.074 249.079 285.312C244.57 287.128 239.926 288.529 235.638 290.961C231.751 293.159 228.227 295.571 225.787 299.384C225.446 299.92 224.849 300.288 224.367 300.731C229.118 289.105 233.869 277.479 243.296 268.607C244.757 267.12 246.647 267.649 248.362 267.649C274.736 267.616 301.11 267.629 327.491 267.616C329.153 267.616 330.835 267.77 332.463 267.261C335.887 266.664 339.351 266.905 342.795 266.986C343.901 267.013 345.382 266.778 345.67 268.52C345.489 268.909 345.181 269.137 344.752 269.197H344.745Z" fill="#D32045"/>
<path d="M510.668 392.423C507.151 395.961 501.924 397.402 499.123 401.818C483.41 395.365 472.943 378.378 473.587 360.367C473.634 359.141 473.707 357.921 473.774 356.695C474.518 354.075 476.676 352.514 478.612 351.046C482.552 348.064 486.727 345.377 491.055 342.958C491.752 342.57 492.483 342.329 493.206 342.932C493.588 344.56 492.476 345.666 491.766 346.878C483.068 361.566 488.295 379.511 502.125 387.934C504.732 389.522 507.767 389.971 510.367 391.498C510.642 391.753 510.742 392.061 510.662 392.43L510.668 392.423Z" fill="#282B2F"/>
<path d="M366.449 65.3881C376.56 61.113 386.39 64.6711 392.046 74.7289C393.285 76.9401 394.284 79.2854 395.396 81.5636C393.902 83.6341 391.476 84.063 389.312 84.78C381.8 87.2726 374.564 90.4555 367.193 93.31C364.888 94.2012 362.496 94.7238 360.137 95.3671C357.758 96.0104 356.565 95.0924 356.264 92.5997C355.862 89.2895 356.847 86.1536 357.892 83.1115C360.03 76.8731 362.717 70.876 366.442 65.3881H366.449Z" fill="#F72D57"/>
<path d="M493.2 343.052C490.7 343.381 489.052 345.317 486.995 346.45C482.083 349.163 477.634 352.574 473.774 356.695C472.729 357.439 471.677 358.183 470.605 358.946C470.002 358.028 470.303 357.171 470.337 356.333C472.595 356.568 472.696 354.303 473.372 353.224C480.824 341.317 492.443 335.521 504.966 330.703C513.141 327.56 521.47 326.636 530.087 326.816C539.756 327.017 548.146 330.703 556.046 335.883C557.158 336.613 558.277 337.33 559.423 338C561.513 339.226 560.415 337.189 560.776 336.653C563.122 340.412 564.797 344.413 565.688 349.492C563.202 347.776 561.319 346.436 559.383 345.183C558.753 344.774 558.143 343.649 557.165 344.734C556.066 342.081 553.386 341.31 551.201 340.439C545.626 338.221 540.252 335.212 534.047 334.924C533.277 334.891 532.486 334.777 531.803 335.293C530.308 336.137 528.888 334.81 527.407 335.145C516.13 334.422 505.717 337.497 495.712 342.349C494.922 342.731 494.158 343.233 493.213 343.052H493.2Z" fill="#D32045"/>
<path d="M181.603 157.389C213.123 158.816 244.657 157.59 276.177 158.086C279.219 158.133 280.278 157.349 280.11 154.213C279.869 149.656 280.11 145.08 280.15 140.51C281.289 143.297 280.606 146.212 280.66 149.053C280.753 154.494 280.619 159.935 280.579 165.383C279.956 164.847 280.09 164.096 280.01 163.413C277.919 163.748 275.815 163.835 273.697 163.828C245.012 163.815 216.319 163.828 187.633 163.802C185.65 163.802 183.593 164.143 181.744 163.044C180.859 161.182 181.08 159.285 181.61 157.389H181.603Z" fill="#B61A3B"/>
<path d="M332.986 268.031C331.726 268.701 330.366 268.4 329.052 268.406C301.573 268.453 274.1 268.473 246.62 268.514C245.508 268.514 244.402 268.581 243.29 268.614C239.544 265.699 239.182 260.258 242.506 256.794C243.444 255.273 245.019 255.494 246.406 255.521C254.976 255.675 263.539 255.28 272.123 255.93C277.403 256.332 282.77 255.246 288.124 255.534C288.989 255.581 289.913 255.226 290.644 256.003C293.793 256.828 296.936 256.908 300.065 255.93C303.033 257.571 306.431 257.592 309.607 258.443C308.716 259.528 307.442 259.495 306.23 259.541C292.064 260.051 277.966 261.304 263.961 263.535C259.097 264.312 254.339 265.465 249.756 266.872C275.962 266.859 302.29 266.852 328.623 266.885C330.144 266.885 331.799 266.638 332.979 268.031H332.986Z" fill="#A6A1A1"/>
<path d="M366.449 65.3881C366.637 66.8221 365.926 67.9414 365.236 69.1073C361.584 75.2653 358.857 81.8186 357.303 88.8141C356.994 90.2012 357.055 91.7021 357.149 93.1361C357.249 94.6639 358.12 95.287 359.681 94.7443C363.943 93.2634 368.319 92.064 372.453 90.295C379.991 87.0719 387.737 84.4453 395.396 81.5573C399.98 79.8419 404.556 78.0997 409.153 76.4178C410.144 76.056 411.418 75.3725 412.041 76.8668C412.724 78.5017 411.371 78.9976 410.211 79.4398C404.59 81.5774 398.961 83.6948 393.339 85.8189C392.079 87.3936 390.19 87.8559 388.434 88.4925C382.162 90.764 375.984 93.2902 369.686 95.4746C367.461 96.2452 365.558 97.5921 363.461 98.5771C361.001 99.7966 358.113 99.6157 355.694 100.956C355.132 101.264 354.676 101.82 353.932 101.612C351.332 100.205 351.151 97.7127 351.198 95.2133C351.352 86.5024 352.404 78.0327 358.348 71.0438C360.546 68.4574 363.132 66.3734 366.456 65.375L366.449 65.3881Z" fill="#D32045"/>
<path d="M363.199 98.5367C364.419 96.8682 366.047 95.8899 368.004 95.1863C376.473 92.1308 384.896 88.9546 393.339 85.8254C393.352 87.6011 392.917 89.4304 394.016 91.0653C394.532 94.0405 394.069 97.0491 394.277 100.031C394.398 101.766 393.466 102.363 391.999 102.711C388.434 103.569 384.836 104.293 381.305 105.291C376.078 105.954 370.845 105.251 365.618 105.351C364.111 105.378 362.75 104.876 362.02 103.368C361.551 101.545 360.948 99.6892 363.206 98.5299L363.199 98.5367Z" fill="#F39E81"/>
<path d="M371.287 141.917C371.193 142.574 371.106 143.23 371.046 143.659C363.011 137.83 353.644 133.856 346.213 127.041C349.503 123.959 349.369 119.543 350.488 115.335C351.48 116.367 352.223 117.151 352.967 117.928C356.579 120.032 359.031 123.45 362.201 126.05C364.854 128.14 367.983 129.561 370.429 131.94C371.072 135.236 371.24 138.573 371.28 141.924L371.287 141.917Z" fill="#D32045"/>
<path d="M290.65 255.996C289.009 256.519 287.387 256.646 285.618 256.626C271.459 256.499 257.301 256.579 243.149 256.6C242.935 256.6 242.727 256.72 242.512 256.787C229.486 256.707 216.453 256.633 203.427 256.519C202.141 256.506 200.733 256.975 199.588 255.936C200.03 254.683 201.115 254.368 202.241 254.234C204.673 253.939 207.079 253.464 209.552 253.43C230.377 253.182 251.19 252.016 272.022 252.083C278.261 252.103 284.499 252.452 290.731 251.929C291.803 253.303 291.481 254.65 290.657 255.99L290.65 255.996Z" fill="#B61A3B"/>
<path d="M290.724 251.936C290.416 253.598 289.082 253.142 288.057 253.149C283.38 253.189 278.696 253.276 274.026 253.149C258.34 252.727 242.667 253.645 227 254.06C218.725 254.274 210.349 253.785 202.094 255.166C201.196 255.313 200.352 255.474 199.581 255.943C198.844 255.708 198.388 255.052 198.549 254.442C199.608 250.375 196.8 251.145 194.515 251.038C192.244 250.937 189.912 251.561 187.707 250.576C211.079 251.373 234.452 251.105 257.824 251.152C263.6 251.165 269.382 251.266 275.125 250.455C278.944 251.52 282.851 250.703 286.71 250.991C288.084 251.092 289.659 250.482 290.731 251.929L290.724 251.936Z" fill="#B61A3B"/>
<path d="M163.833 376.395C154.693 376.395 145.56 376.395 136.42 376.395C135.529 376.395 134.591 376.543 133.76 376.315C132.594 375.993 130.677 376.308 130.745 374.425C130.825 372.301 132.728 373.165 133.887 373.072C150.116 371.785 166.379 372.723 182.621 372.495C186.052 372.448 189.483 372.864 192.92 373.045C194.066 373.105 195.366 373.085 195.467 374.559C195.581 376.275 194.207 376.395 192.92 376.402C187.124 376.402 181.335 376.402 175.539 376.402C171.639 376.402 167.739 376.402 163.839 376.402L163.833 376.395Z" fill="#F72D57"/>
<path d="M466.276 162.093C462.551 163.165 460.641 162.401 460.835 159.306C461.365 150.856 462.698 142.507 465.881 134.566C466.069 134.091 466.598 133.756 466.966 133.354C469.774 132.087 471.349 133.447 472.428 135.907C475.021 141.83 473.821 147.66 471.851 153.402C470.712 156.712 469.754 160.244 466.27 162.093H466.276Z" fill="#B61A3B"/>
<path d="M381.204 104.447C384.816 103.556 388.394 102.517 392.046 101.834C393.721 101.519 393.929 100.694 393.929 99.361C393.929 96.6003 393.975 93.8396 394.009 91.0789C395.269 93.9602 393.66 97.2435 394.746 99.8702C396.16 103.301 394.947 106.042 393.868 108.923C392.26 113.191 389.607 116.924 387.241 120.79C385.439 123.738 383.274 121.976 381.197 121.172C376.118 115.851 376.118 108.494 381.197 104.453L381.204 104.447Z" fill="#CDCACB"/>
<path d="M370.436 131.933C367.106 130.847 364.492 128.623 361.792 126.532C360.894 122.257 360.633 117.808 358.267 113.941C357.899 113.338 358.113 112.655 358.12 112.005C358.984 110.397 360.378 109.305 361.772 108.219C363.983 108.159 365.504 109.432 366.864 110.94C369.618 113.982 372.299 116.997 376.219 118.746C378.792 119.892 378.879 121.232 377.163 122.525C374.966 122.86 373.867 124.314 373.089 126.271C372.319 128.207 371.32 130.05 370.422 131.933H370.436Z" fill="#E57866"/>
<path d="M162.935 394.52C153.353 394.52 143.771 394.561 134.189 394.48C132.869 394.467 130.657 395.398 130.691 392.765C130.724 390.379 132.768 391.21 134.008 391.21C153.279 391.157 172.557 391.17 191.828 391.17C192.384 391.17 192.941 391.163 193.497 391.184C194.616 391.23 195.547 391.639 195.493 392.912C195.433 394.172 194.448 394.487 193.349 394.5C192.572 394.514 191.788 394.514 191.011 394.514C181.65 394.514 172.296 394.514 162.935 394.514V394.52Z" fill="#F72D57"/>
<path d="M377.17 122.525C378.939 120.756 376.842 119.738 376.071 119.483C371.555 118.022 368.881 114.484 366.027 111.134C364.881 109.794 363.246 109.345 361.819 108.514C360.365 106.544 360.666 104.748 362.355 103.087C363.246 103.917 364.144 104.494 365.511 104.474C370.737 104.38 375.971 104.44 381.197 104.447C379.22 107.435 378.081 110.591 378.443 114.304C378.698 116.937 381.063 118.572 381.19 121.165C379.891 121.748 378.751 122.793 377.17 122.525Z" fill="#E7B09D"/>
<path d="M180.578 385.173C170.768 385.173 160.958 385.193 151.148 385.14C150.103 385.14 148.294 385.857 148.274 383.94C148.253 382.252 149.895 382.433 151.101 382.433C170.721 382.426 190.341 382.426 209.967 382.433C211.166 382.433 212.808 382.218 212.835 383.893C212.868 385.823 211.066 385.14 210.014 385.146C200.204 385.2 190.394 385.18 180.584 385.18L180.578 385.173Z" fill="#F72D57"/>
<path d="M496.396 192.856C494.835 191.442 495.625 189.727 495.88 188.145C497.515 178.041 497.917 167.983 495.156 157.992C500.403 157.992 507.104 164.586 509.141 171.139C511.814 179.729 506.125 186.537 498.601 189.908C497.006 190.625 496.208 191.174 496.389 192.863L496.396 192.856Z" fill="#E1C297"/>
<path d="M466.276 162.093C469.848 157.764 471.496 152.605 472.648 147.237C473.352 143.934 473.144 140.637 472.206 137.414C471.462 134.854 470.028 133.018 466.973 133.354C469.278 130.419 471.161 132.355 472.488 134.184C474.813 137.374 475.376 141.187 474.806 145.046C474.337 148.236 473.587 151.385 472.836 154.528C472.602 155.513 472.34 156.31 472.762 157.382C473.741 159.835 474.732 161.517 477.788 159.788C479.302 158.93 481.138 158.588 482.961 158.588C483.658 158.85 484.495 159.178 482.968 159.386C478.739 159.962 475.242 162.086 472.287 164.927C468.273 168.787 467.388 173.632 468.849 178.945C469.144 180.011 469.365 181.089 469.62 182.162C469.164 183.964 468.34 184.339 467.02 182.845C463.475 176.513 464.527 169.142 469.687 164.204C470.169 163.741 470.719 163.353 471.188 162.877C472.065 161.979 471.335 161.202 470.873 160.498C470.33 159.674 469.727 160.217 469.204 160.625C468.32 161.316 467.449 162.006 466.27 162.093H466.276Z" fill="#D32045"/>
<path d="M467.033 182.852C468.146 183.555 468.923 183.006 469.633 182.168C472.856 180.815 475.168 178.141 478.056 176.332C479.946 175.146 482.244 174.549 483.745 176.727C485.105 178.697 484.65 180.667 482.432 182.148C480.596 183.374 478.894 184.835 477.245 186.316C475.222 188.125 472.91 189.673 471.61 192.179C470.538 190.028 469.211 188.078 466.899 187.107C465.633 186.577 465.62 185.847 466.283 184.855C467.067 184.386 467.054 183.616 467.04 182.838L467.033 182.852Z" fill="#B61A3B"/>
<path d="M362.355 103.087C361.725 104.849 361.765 106.685 361.819 108.514C361.041 109.955 360.157 111.288 358.468 111.797C358.24 112.179 357.992 112.193 357.724 111.831C354.501 112.213 353.235 110.638 353.463 107.576C353.61 105.593 353.771 103.609 353.925 101.619C355.312 99.7294 357.034 98.6171 359.514 99.0325C360.532 99.2 361.356 98.8851 362.066 97.9604C362.871 96.9151 362.992 97.9738 363.199 98.5367C362.409 99.9572 362.14 101.478 362.355 103.087Z" fill="#67302E"/>
<path d="M181.603 157.389C181.589 159.178 181.583 160.967 181.569 162.763C182.735 164.043 182.635 165.644 182.635 167.185C182.662 188.319 182.662 209.453 182.635 230.587C182.635 232.129 182.762 233.73 181.63 235.037C181.355 235.037 181.087 235.037 180.812 235.037C180.759 227.673 180.665 220.309 180.658 212.944C180.638 189.948 180.672 166.944 180.645 143.947C180.645 140.684 181.094 137.716 184.19 135.853C184.196 135.967 184.256 136.107 184.209 136.181C179.774 142.815 182.092 150.273 181.603 157.389Z" fill="#A54041"/>
<path d="M357.731 111.838C357.979 111.824 358.227 111.818 358.468 111.804C360.525 115.456 361.303 119.53 362.167 123.544C362.355 124.422 363.742 125.795 361.792 126.532C358.509 124.013 355.56 121.152 352.967 117.922C355.487 116.622 356.793 114.377 357.731 111.838Z" fill="#F49C82"/>
<path d="M486.124 231.693C486.184 239.734 484.71 247.56 482.592 255.259C478.284 270.926 472.521 286.056 465.579 300.744C465.003 301.963 464.367 303.109 463.455 304.101C461.834 303.967 461.284 302.62 460.715 301.468C457.612 295.209 455.997 288.582 455.247 281.62C454.336 273.144 455.046 264.949 457.92 256.935C461.197 247.788 466.43 240.324 475.55 236.089C477.969 234.963 480.214 233.455 482.673 232.39C483.745 231.928 484.784 231.01 486.117 231.693H486.124Z" fill="#CBCBCB"/>
<path d="M486.124 231.693C482.78 233.408 479.47 235.191 476.093 236.833C462.939 243.225 458.068 254.851 456.252 268.326C454.858 278.645 456.352 288.643 460.212 298.312C461.05 300.402 462.108 302.326 463.462 304.101C463.328 305.307 463.154 306.5 462.236 307.418C459.729 303.672 456.754 300.235 455.441 295.752C450.395 278.565 449.745 261.806 460.105 246.107C463.924 240.317 469.767 237.128 475.831 234.166C479.269 232.491 483.142 231.492 485.842 228.49C486.606 229.502 486.358 230.594 486.124 231.693Z" fill="#A3A3A3"/>
<path d="M369.263 347.589C366.074 343.193 367.762 339.025 369.866 334.878C373.183 335.447 376.768 333.852 379.864 336.144C378.651 337.457 377.17 336.693 375.783 336.68C374.021 336.667 372.037 336.338 371.642 338.871C371.287 341.143 372.533 342.965 374.939 343.428C383.187 345.016 391.516 344.976 399.839 344.372C403.477 344.111 407.163 343.87 410.687 342.704C411.552 342.423 412.443 342.496 413.294 342.858C413.535 344.46 413.495 345.927 411.498 346.396C408.576 348.011 405.253 348.018 402.13 348.185C392.602 348.688 383.053 348.668 373.512 349.009C371.783 349.07 370.61 348.245 369.257 347.589H369.263Z" fill="#B12627"/>
<path d="M361.986 184.943C355.688 196.414 350.655 208.536 344.055 219.853C342.233 225.274 338.353 229.154 333.87 232.229C325.675 237.851 316.274 238.629 306.658 237.965C305.754 237.905 304.923 237.583 304.146 237.121C300.212 236.089 296.4 234.588 292.285 234.293C291.635 234.246 291.461 233.663 291.361 233.1C307.416 231.465 322.693 227.633 335.786 217.528C336.818 216.731 337.998 216.148 339.056 215.324C343.419 211.94 344.719 208.134 342.32 202.8C340.423 198.585 341.576 196.669 345.442 195.751C352.176 194.149 356.405 189.888 358.743 183.522C359.004 182.812 359.393 182.148 359.728 181.465C362.047 181.599 362.408 183.013 361.986 184.936V184.943Z" fill="#D32045"/>
<path d="M361.986 184.943C361.718 183.475 361.001 182.289 359.728 181.471C359.38 180.547 358.301 179.977 358.435 178.818C359.232 176.761 360.887 175.461 362.542 174.161C362.737 174.141 362.938 174.134 363.132 174.141C365.109 179.709 369.773 183.16 373.525 187.328C379.562 194.035 387.952 194.156 395.912 194.766C408.536 195.744 421.187 196.36 433.872 196.38C436.049 196.38 438.763 195.402 440.767 197.453C437.121 198.712 433.268 198.424 429.536 198.679C415.907 199.597 402.258 200.408 388.602 200.776C381.07 200.977 374.744 197.674 369.498 192.166C367.112 189.66 365.464 186.329 361.993 184.942L361.986 184.943Z" fill="#E47867"/>
<path d="M362.542 174.168C361.758 176.232 359.983 177.424 358.435 178.825C357.517 179.736 356.753 180.56 355.694 178.811C352.478 173.498 348.819 168.432 345.938 162.944C343.988 159.225 344.692 155.01 346.246 150.896C348.478 160.981 355.909 167.293 362.542 174.174V174.168Z" fill="#D32045"/>
<path d="M181.63 235.037C181.61 210.941 181.589 186.852 181.569 162.763C213.458 162.749 245.34 162.736 277.229 162.736C278.187 162.736 279.273 162.415 280.01 163.406C274.2 181.076 262.93 194.799 249.133 206.834C239.913 214.875 229.466 220.657 218.316 225.495C206.55 230.608 194.153 232.993 181.63 235.037Z" fill="#F72D57"/>
<path d="M259.164 391.914C245.427 388.792 237.025 378.586 235.323 362.96C237.373 361.593 239.665 362.411 241.836 362.324C245.736 362.17 249.642 362.263 253.542 362.25C254.862 362.746 254.661 364.046 254.962 365.044C257.489 373.333 266.494 376.161 273.329 370.787C274.194 370.11 274.877 369.179 276.003 368.864C277.919 369.587 277.229 370.988 276.686 372.12C273.276 379.317 268.84 385.783 262.822 391.07C261.777 391.988 260.584 392.524 259.157 391.907L259.164 391.914Z" fill="#CCCBCB"/>
<path d="M259.164 391.914C260.29 391.827 261.241 391.479 262.132 390.661C268.002 385.287 272.592 378.982 275.956 371.785C276.351 370.934 277.182 370.056 276.083 369.118C275.647 366.746 276.988 364.897 277.919 362.927C280.532 361.66 283.32 362.625 286.007 362.304C287.829 362.089 289.752 362.86 291.481 361.747C293.016 362.773 295.1 361.412 296.52 362.92C295.616 382.64 277.329 396.826 259.164 391.907L259.164 391.914Z" fill="#A3A2A2"/>
<path d="M277.919 362.927C278.482 365.339 276.699 367.054 276.083 369.118C272.719 373.427 268.431 375.37 262.997 374.003C256.932 372.482 254.339 368.066 253.549 362.25C261.127 361.279 268.732 362.022 276.318 361.888C276.847 361.882 277.39 362.565 277.926 362.934L277.919 362.927Z" fill="#66717B"/>
<path d="M261.764 338.791C258.199 338.791 254.634 338.845 251.069 338.757C250.031 338.731 248.523 338.664 248.704 337.096C248.865 335.695 250.279 336.204 251.183 336.158C257.85 335.843 264.538 336.64 271.191 335.675C271.299 335.662 271.433 335.628 271.52 335.675C272.699 336.278 275.031 335.447 274.991 337.323C274.951 339.159 272.84 338.804 271.453 338.824C268.223 338.878 264.993 338.838 261.764 338.838V338.784V338.791Z" fill="#6A1817"/>
<path d="M262.273 344.171C265.731 344.171 269.182 344.145 272.639 344.191C273.577 344.205 274.978 343.897 275.125 345.21C275.286 346.677 273.979 346.892 272.786 346.892C265.429 346.899 258.078 346.905 250.721 346.892C249.723 346.892 248.55 346.986 248.637 345.451C248.724 343.923 249.977 344.212 250.909 344.205C254.695 344.165 258.487 344.191 262.273 344.191V344.171Z" fill="#6F161C"/>
<path d="M261.944 322.233C258.373 322.233 254.808 322.267 251.237 322.207C250.238 322.186 248.744 322.702 248.644 320.967C248.543 319.198 250.031 319.54 251.063 319.533C258.199 319.493 265.342 319.493 272.478 319.513C273.557 319.513 275.058 319.359 274.977 320.933C274.897 322.454 273.376 322.18 272.317 322.193C268.86 322.233 265.402 322.207 261.944 322.207V322.233Z" fill="#6F1217"/>
<path d="M261.623 330.288C258.172 330.288 254.721 330.335 251.277 330.261C250.312 330.241 248.691 330.824 248.724 329.082C248.751 327.634 250.279 327.668 251.317 327.634C254.098 327.534 256.879 327.594 259.66 327.587C263.888 327.587 268.116 327.56 272.344 327.607C273.423 327.621 274.944 327.654 274.931 329.021C274.917 330.509 273.363 330.274 272.297 330.288C268.739 330.328 265.174 330.301 261.616 330.301V330.288H261.623Z" fill="#701614"/>
<path d="M308.119 362.243C304.38 362.632 300.641 362.478 296.902 362.33C300.635 361.332 304.374 361.479 308.119 362.243Z" fill="#D32045"/>
<path d="M460.246 200.917C458.617 202.224 456.956 203.497 455.361 204.85C452.339 207.41 449.27 207.678 447.126 205.5C444.847 203.188 445.129 200.81 448.07 197.426C450.57 196.347 453.069 195.275 455.569 194.196C456.138 193.774 456.835 193.928 457.465 193.794C459.421 193.358 461.311 193.318 462.068 195.637C462.765 197.768 462.665 199.784 460.246 200.917Z" fill="#B61A3B"/>
<path d="M460.246 200.917C460.413 200.522 460.48 200.039 460.755 199.758C462.041 198.438 461.733 196.97 461.197 195.516C460.594 193.875 459.12 194.25 457.853 194.203C457.09 194.176 456.326 194.203 455.568 194.203C457.84 192.655 460.828 191.844 462.678 193.499C464.366 195.007 464.661 198.049 464.025 200.669C463.636 202.284 463.288 203.905 462.919 205.527C462.082 206.103 461.17 206.753 460.205 206.03C459.368 205.406 459.783 204.421 459.924 203.557C460.071 202.686 460.145 201.801 460.252 200.924L460.246 200.917Z" fill="#E57969"/>
<path d="M304.146 237.121C307.824 237.108 311.51 237.195 315.182 237.054C325.079 236.672 333.515 233.054 339.934 225.341C341.388 223.592 342.373 221.461 344.055 219.86C351.171 224.852 358.79 229.047 366.181 233.59C374.724 238.843 383.368 243.936 391.912 249.189C395.986 251.688 397.909 255.474 397.339 260.238C396.194 269.861 394.894 279.463 393.627 289.072C391.831 302.654 390.009 316.236 388.2 329.812C387.972 331.507 388.233 333.142 388.809 334.737C388.568 335.085 388.28 335.132 387.938 334.871C385.747 333.564 383.194 334.234 380.889 333.578C380.681 333.517 380.447 333.571 380.219 333.564C372.339 333.457 370.148 331.387 371.294 323.754C372.044 318.776 371.897 313.784 372.319 308.812C373.431 295.739 374.195 282.619 373.873 269.465C373.639 260.004 369.927 254.898 360.975 252.05C354.321 249.933 347.406 249.584 340.598 249.283C331.17 248.867 322.077 247.092 313.252 244.096C309.687 242.884 306.25 240.652 304.139 237.114L304.146 237.121Z" fill="#4B6470"/>
<path d="M353.878 263.803C353.342 263.91 352.371 263.944 352.33 264.145C351.587 268.286 348.069 268.413 345.06 269.264C345.389 267.683 344.196 268.125 343.452 268.111C339.968 268.058 336.477 268.051 332.992 268.031C329.87 267.971 326.754 267.87 323.638 267.864C297.988 267.85 272.337 267.857 246.352 267.857C247.283 266.55 248.53 266.269 249.682 265.867C257.495 263.153 265.65 262.208 273.798 261.136C285.692 259.568 297.626 258.65 309.613 258.436C323.785 259.695 338.098 259.715 352.016 263.186C352.645 263.347 353.255 263.595 353.878 263.803Z" fill="#CDCBCB"/>
<path d="M387.938 334.871C388.226 334.824 388.514 334.777 388.809 334.737C389.868 335.038 390.994 335.192 391.965 335.668C396.709 337.993 401.815 338.771 406.955 339.622C409.26 340.003 412.195 339.843 413.294 342.865C402.666 346.275 391.778 346.007 380.855 345.15C378.651 344.975 376.466 344.593 374.275 344.299C371.595 343.937 370.282 341.759 370.463 338.268C370.61 335.346 372.895 335.929 374.61 335.608C376.4 335.266 378.048 336.606 379.864 336.157C381.827 336.171 383.79 336.197 385.754 336.204C386.745 336.204 387.784 336.264 387.945 334.877L387.938 334.871Z" fill="#D73936"/>
<path d="M527.983 334.341C529.43 333.946 530.516 335.032 531.796 335.293C553.158 347.461 552.89 376.737 532.339 388.832C525.571 392.812 518.2 393.1 510.668 392.423C510.575 392.256 510.481 392.088 510.387 391.927C516.753 386.922 521.865 380.891 525.43 373.574C526.214 371.959 526.857 370.324 526.877 368.495C527.97 365.741 528.191 362.773 528.988 359.945C530.288 355.368 529.665 350.731 529.33 346.128C529.102 343.046 528.687 339.957 527.936 336.935C527.722 336.077 527.534 335.192 527.996 334.341H527.983Z" fill="#A2A2A2"/>
<path d="M527.306 369.118C527.956 372.361 525.785 374.693 524.425 377.159C521.584 382.312 517.677 386.688 513.342 390.674C512.451 391.492 511.493 391.814 510.38 391.921C489.883 387.686 479.993 363.309 491.565 345.559C492.107 344.721 492.657 343.883 493.2 343.052C499.559 338.476 506.956 336.593 514.428 335.018C518.877 334.08 523.427 333.859 527.983 334.348C530.871 342.369 530.724 350.705 530.536 359.04C530.516 359.831 530.08 360.253 529.303 360.327C527.501 358.136 526.837 355.234 524.284 353.425C519.165 349.8 513.329 350.135 508.987 354.718C505.308 358.598 504.919 365.172 508.129 369.091C512.055 373.882 518.555 374.841 523.721 371.43C524.907 370.646 525.718 369.279 527.306 369.125V369.118Z" fill="#CBCBCB"/>
<path d="M497.528 162.917C502.581 163.969 507.211 169.082 507.774 174.04C508.169 177.511 504.792 182.751 500.778 184.534C499.693 185.016 497.381 186.577 497.85 183.341C498.842 176.52 498.761 169.745 497.528 162.91V162.917Z" fill="#FBE9AE"/>
<path d="M527.306 369.118C520.874 377.822 509.161 374.974 505.871 366.86C503.21 360.307 506.829 352.614 513.322 350.604C520.652 348.339 527.501 352.5 529.303 360.32C529.524 363.456 528.713 366.351 527.306 369.118Z" fill="#66727B"/>
</svg>
